HIERARCHY
ROOT root
{
	OFFSET 0.000000 0.000000 0.000000
	CHANNELS 6 Xposition Yposition Zposition Zrotation Yrotation Xrotation
	JOINT lhip
	{
		OFFSET 0.058581 -0.082280 -0.017664
		CHANNELS 3 Zrotation Yrotation Xrotation
		JOINT lknee
		{
			OFFSET 0.043451 -0.386469 0.008037
			CHANNELS 3 Zrotation Yrotation Xrotation
			JOINT lankle
			{
				OFFSET -0.014790 -0.426874 -0.037428
				CHANNELS 3 Zrotation Yrotation Xrotation
				JOINT ltoe
				{
					OFFSET 0.041054 -0.060286 0.122042
					CHANNELS 3 Zrotation Yrotation Xrotation
					End Site
					{
						OFFSET 0.000000 0.000000 0.000000
					}
				}
			}
		}
	}
	JOINT rhip
	{
		OFFSET -0.060310 -0.090513 -0.013543
		CHANNELS 3 Zrotation Yrotation Xrotation
		JOINT rknee
		{
			OFFSET -0.043257 -0.383688 -0.004843
			CHANNELS 3 Zrotation Yrotation Xrotation
			JOINT rankle
			{
				OFFSET 0.019056 -0.420046 -0.034562
				CHANNELS 3 Zrotation Yrotation Xrotation
				JOINT rtoe
				{
					OFFSET -0.034840 -0.062106 0.130323
					CHANNELS 3 Zrotation Yrotation Xrotation
					End Site
					{
						OFFSET 0.000000 0.000000 0.000000
					}
				}
			}
		}
	}
	JOINT lowerback
	{
		OFFSET 0.004439 0.124404 -0.038385
		CHANNELS 3 Zrotation Yrotation Xrotation
		JOINT upperback
		{
			OFFSET 0.004488 0.137956 0.026820
			CHANNELS 3 Zrotation Yrotation Xrotation
			JOINT chest
			{
				OFFSET -0.002265 0.056032 0.002855
				CHANNELS 3 Zrotation Yrotation Xrotation
				JOINT lowerneck
				{
					OFFSET -0.013390 0.211636 -0.033468
					CHANNELS 3 Zrotation Yrotation Xrotation
					JOINT upperneck
					{
						OFFSET 0.010113 0.088937 0.050410
						CHANNELS 3 Zrotation Yrotation Xrotation
						End Site
						{
							OFFSET 0.000000 0.000000 0.000000
						}
					}
				}
				JOINT lclavicle
				{
					OFFSET 0.071702 0.114000 -0.018898
					CHANNELS 3 Zrotation Yrotation Xrotation
					JOINT lshoulder
					{
						OFFSET 0.122921 0.045205 -0.019046
						CHANNELS 3 Zrotation Yrotation Xrotation
						JOINT lelbow
						{
							OFFSET 0.255332 -0.015649 -0.022946
							CHANNELS 3 Zrotation Yrotation Xrotation
							JOINT lwrist
							{
								OFFSET 0.265709 0.012698 -0.007375
								CHANNELS 3 Zrotation Yrotation Xrotation
								End Site
								{
									OFFSET 0.000000 0.000000 0.000000
								}
							}
						}
					}
				}
				JOINT rclavicle
				{
					OFFSET -0.082954 0.112472 -0.023707
					CHANNELS 3 Zrotation Yrotation Xrotation
					JOINT rshoulder
					{
						OFFSET -0.113228 0.046853 -0.008472
						CHANNELS 3 Zrotation Yrotation Xrotation
						JOINT relbow
						{
							OFFSET -0.260127 -0.014369 -0.031269
							CHANNELS 3 Zrotation Yrotation Xrotation
							JOINT rwrist
							{
								OFFSET -0.269108 0.006794 -0.006027
								CHANNELS 3 Zrotation Yrotation Xrotation
								End Site
								{
									OFFSET 0.000000 0.000000 0.000000
								}
							}
						}
					}
				}
			}
		}
	}
}
MOTION
Frames: 10
Frame Time: 0.033333
1.293132 0.715780 0.995332 -92.949019 0.264529 87.126452 -0.321171 -1.098708 -0.174031 -1.168536 -8.975737 4.780690 2.470850 10.159090 -9.280988 0.000000 -0.000000 0.000000 1.000035 -2.141938 -4.505219 -1.676541 -0.550897 12.036823 1.638860 -9.603810 -7.746084 0.000000 -0.000000 0.000000 -0.394249 1.731790 10.140791 0.211402 -2.684337 1.709847 -0.803286 0.589595 -1.239490 -0.505565 -1.106931 -7.425587 3.950336 -0.321769 3.071333 -25.882422 -2.945690 -0.507503 -51.470195 -5.842711 9.642446 10.070296 -17.202000 -7.430401 -3.670649 -7.703119 0.061197 24.098257 5.038105 2.147681 54.262587 0.377229 11.905904 -14.742777 30.618067 -4.315144 3.338293 9.226182 3.157507 
1.292547 0.715176 0.995889 -93.175353 0.334687 87.162633 -0.384924 -0.863939 0.062412 -0.952828 -9.070958 4.388898 2.752964 10.284387 -9.194900 0.000000 -0.000000 0.000000 0.886773 -2.051326 -4.692615 -1.362360 -0.883155 12.262854 1.711732 -9.752216 -7.716207 0.000000 -0.000000 0.000000 -0.398732 1.679511 9.941994 0.403925 -2.811491 2.257746 -0.881141 0.488793 -1.826449 -0.755039 -0.880266 -7.204741 3.957063 -0.191449 3.120807 -25.240873 -3.009957 -0.905878 -50.496218 -5.371382 10.019192 9.862576 -15.825593 -7.304918 -4.985102 -7.217253 1.285175 23.868640 5.178333 1.959255 52.747000 -0.023074 12.356421 -13.439912 30.557026 -2.709465 4.801270 8.486246 4.568251 
1.291655 0.715120 0.996131 -93.443303 0.479985 87.009237 -0.335499 -0.603158 0.462487 -0.761008 -9.163996 4.136431 2.614290 10.406195 -9.107892 0.000000 -0.000000 0.000000 1.031787 -2.257747 -4.698411 -1.148876 -1.205292 12.419104 1.750186 -10.260861 -7.817685 0.000000 -0.000000 0.000000 -0.369769 1.618648 9.671380 0.627046 -2.905392 2.595118 -0.818788 0.424610 -1.892424 -1.246905 -0.913518 -6.725067 3.376441 -0.390403 3.079360 -24.510771 -3.249899 -0.889432 -49.216377 -4.600718 10.348521 8.002433 -15.288328 -5.810529 -6.150662 -6.350912 2.248194 23.324174 5.743912 1.983821 50.831542 -0.576185 13.537449 -10.154127 30.860507 1.910392 5.298365 7.842468 7.738524 
1.290496 0.715589 0.996518 -94.081702 0.562962 87.136269 -0.285716 -0.283567 0.711591 -0.581776 -9.037072 3.635654 2.185423 10.829038 -9.075521 0.000000 -0.000000 0.000000 1.238767 -2.578442 -4.923269 -1.072484 -1.309599 12.281061 1.903751 -10.637808 -7.603700 0.000000 -0.000000 0.000000 -0.253961 1.479247 8.952211 0.879093 -3.011867 3.058763 -1.064630 0.559468 -2.247084 -2.228329 -1.130681 -5.889912 2.289057 -1.028271 3.421678 -23.832811 -3.263330 -0.967876 -47.111570 -2.942010 12.495644 3.706638 -14.863558 0.729725 -8.202391 -5.743299 6.702914 23.234800 6.537250 1.917863 47.799189 -0.955588 16.180680 -3.607112 30.028616 11.959702 5.396385 7.307418 15.388739 
1.289482 0.716023 0.996550 -94.735910 0.512332 87.184513 -0.355835 -0.089556 0.954945 -0.490731 -8.848895 3.313412 2.028689 11.150450 -9.088070 0.000000 -0.000000 0.000000 1.196018 -2.605485 -4.664178 -0.983437 -0.825223 11.689059 2.153017 -10.723077 -7.526380 0.000000 -0.000000 0.000000 -0.166401 1.513697 8.209684 0.864664 -3.130352 3.663270 -1.263600 0.774751 -2.515125 -2.866402 -1.331994 -5.272607 1.558588 -1.557381 4.060622 -23.565934 -3.433819 -0.544683 -46.205735 -2.065817 13.999482 1.483190 -14.554793 5.158721 -9.914698 -5.211574 9.492031 23.359627 7.152839 2.254585 46.697748 -1.044761 17.625868 -0.497419 29.711708 16.770361 5.839390 6.100190 18.345084 
1.287719 0.716753 0.996151 -95.746198 0.319484 87.186803 -0.593180 0.313604 1.410914 -0.327650 -8.655173 2.860506 1.956884 11.590536 -9.097107 0.000000 -0.000000 0.000000 1.018171 -2.564759 -4.085890 -1.002081 0.123630 10.658022 2.500222 -10.599823 -7.623427 0.000000 -0.000000 0.000000 -0.247979 1.752619 7.373531 0.792024 -2.998993 4.364518 -1.447858 0.934872 -3.010496 -3.452844 -1.515857 -4.950477 0.951713 -1.632191 5.621194 -23.864844 -3.621375 0.261179 -45.524512 -0.998661 15.483522 -0.442714 -13.799966 8.875779 -11.012830 -4.763967 11.789406 23.942758 7.911020 3.094055 46.285285 -1.270152 19.095783 1.762503 28.351542 20.404721 5.999210 5.071916 20.860015 
1.286542 0.717192 0.995498 -96.597577 0.147454 87.077310 -0.756386 0.445651 1.828895 -0.323061 -8.263566 2.623538 1.997796 11.933995 -9.137651 0.000000 -0.000000 0.000000 0.860967 -2.450596 -3.338275 -1.035609 0.842860 9.506363 2.526249 -10.401267 -7.762168 0.000000 -0.000000 0.000000 -0.274475 1.822531 6.816783 0.567959 -2.989916 4.845827 -1.613703 1.229866 -3.361381 -3.425973 -1.474559 -4.878035 0.624935 -1.455216 7.132778 -24.597409 -3.077833 0.969918 -45.567824 -0.349308 15.800603 -1.288894 -13.112481 10.577034 -11.789320 -4.519332 12.847528 24.988902 8.190520 3.830820 46.962050 -1.211129 19.738659 1.606925 26.944610 21.182710 6.038140 4.508295 22.128258 
1.285486 0.717587 0.994931 -97.565864 0.029182 86.806476 -0.858954 0.517958 2.370935 -0.332973 -7.680343 2.517739 2.173994 12.200495 -9.146503 0.000000 -0.000000 0.000000 0.914148 -2.246178 -2.486919 -1.313091 1.331272 8.475768 2.458629 -10.169284 -7.838882 0.000000 -0.000000 0.000000 -0.412495 2.000892 6.788663 0.388581 -2.631272 4.651410 -1.571243 1.317976 -3.339393 -3.052632 -1.128537 -5.347460 0.546211 -0.953089 8.727678 -25.705136 -2.162836 1.631272 -46.320507 0.007491 15.543403 -1.211800 -12.651474 11.397576 -12.139380 -4.563488 12.777018 26.391692 7.419064 4.260049 48.205623 -0.936036 19.280495 -0.222963 25.965026 19.376560 5.398793 4.302722 21.581709 
1.285659 0.717826 0.994373 -98.329970 -0.020589 86.617754 -0.916116 0.759016 2.610415 -0.382037 -7.182869 2.619469 2.315877 12.463309 -9.216659 0.000000 -0.000000 0.000000 1.049701 -1.931754 -1.910626 -1.574366 1.631834 7.768594 2.408744 -9.925360 -7.746716 0.000000 -0.000000 0.000000 -0.337152 1.825796 7.022168 0.164814 -2.177300 4.063941 -1.558984 1.370983 -3.138806 -2.534604 -0.850722 -6.133744 0.592400 -0.334412 9.767480 -26.627176 -0.833344 1.791224 -48.222929 -0.019586 15.368118 -0.515658 -12.217309 11.738644 -12.629182 -4.633248 11.859433 27.193740 5.670592 4.026529 50.785906 -0.146895 17.995253 -2.881802 24.812409 15.304566 5.194087 4.055324 18.306660 
1.283485 0.717099 0.994702 -98.007869 0.203687 86.326681 -0.615067 0.705314 3.079942 -0.420005 -7.086786 2.652842 2.421444 11.992425 -9.248546 0.000000 -0.000000 0.000000 1.156161 -2.399049 -0.731448 -1.556554 1.434360 6.505421 2.491443 -9.663622 -7.627912 0.000000 -0.000000 0.000000 -0.160172 1.927608 6.904509 0.228193 -2.592539 3.463685 -1.273331 0.984744 -2.607166 -2.215730 -0.634897 -6.317476 0.769783 0.351141 9.596527 -27.632134 0.838516 1.962315 -51.458671 -0.064597 14.302864 1.094603 -13.029785 10.041344 -12.522671 -4.844852 9.144007 27.868912 3.608171 3.637219 54.064004 0.220295 15.798696 -6.462869 25.124104 8.310788 4.322481 4.719555 13.135774 
